<?xml version="1.0" encoding="UTF-8" standalone="no"?>
<svg
   xmlns:dc="http://purl.org/dc/elements/1.1/"
   xmlns:cc="http://creativecommons.org/ns#"
   xmlns:rdf="http://www.w3.org/1999/02/22-rdf-syntax-ns#"
   xmlns:svg="http://www.w3.org/2000/svg"
   xmlns="http://www.w3.org/2000/svg"
   xmlns:sodipodi="http://sodipodi.sourceforge.net/DTD/sodipodi-0.dtd"
   xmlns:inkscape="http://www.inkscape.org/namespaces/inkscape"
   width="1080"
   height="1080"
   viewBox="0 0 285.74999 285.75001"
   version="1.1"
   id="svg8"
   inkscape:version="1.0.2 (e86c870879, 2021-01-15)"
   sodipodi:docname="info-button.svg">
  <defs
     id="defs2">
    <inkscape:path-effect
       effect="powermask"
       id="path-effect850"
       is_visible="true"
       lpeversion="1"
       uri="#mask-powermask-path-effect850"
       invert="false"
       hide_mask="false"
       background="true"
       background_color="#ffffffff" />
    <mask
       maskUnits="userSpaceOnUse"
       id="mask-powermask-path-effect850">
      <path
         id="mask-powermask-path-effect850_box"
         style="fill:#ffffff;fill-opacity:1"
         d="M -1,-1 H 286.75 V 286.75 H -1 Z" />
      <circle
         style="fill:#000000;fill-opacity:1;stroke:none;stroke-width:2.22812;stroke-linecap:round;stroke-linejoin:round"
         id="circle848"
         cx="142.875"
         cy="142.875"
         r="128.58749"
         d="M 271.46249,142.875 A 128.58749,128.58749 0 0 1 142.875,271.46249 128.58749,128.58749 0 0 1 14.287506,142.875 128.58749,128.58749 0 0 1 142.875,14.287506 128.58749,128.58749 0 0 1 271.46249,142.875 Z" />
    </mask>
    <filter
       id="mask-powermask-path-effect850_inverse"
       inkscape:label="filtermask-powermask-path-effect850"
       style="color-interpolation-filters:sRGB"
       height="100"
       width="100"
       x="-50"
       y="-50">
      <feColorMatrix
         id="mask-powermask-path-effect850_primitive1"
         values="1"
         type="saturate"
         result="fbSourceGraphic" />
      <feColorMatrix
         id="mask-powermask-path-effect850_primitive2"
         values="-1 0 0 0 1 0 -1 0 0 1 0 0 -1 0 1 0 0 0 1 0 "
         in="fbSourceGraphic" />
    </filter>
  </defs>
  <sodipodi:namedview
     id="base"
     pagecolor="#ffffff"
     bordercolor="#666666"
     borderopacity="1.0"
     inkscape:pageopacity="0.0"
     inkscape:pageshadow="2"
     inkscape:zoom="0.35"
     inkscape:cx="400"
     inkscape:cy="560"
     inkscape:document-units="px"
     inkscape:current-layer="layer1"
     inkscape:document-rotation="0"
     showgrid="false"
     units="px"
     inkscape:window-width="1920"
     inkscape:window-height="1017"
     inkscape:window-x="-8"
     inkscape:window-y="-8"
     inkscape:window-maximized="1" />
  <metadata
     id="metadata5">
    <rdf:RDF>
      <cc:Work
         rdf:about="">
        <dc:format>image/svg+xml</dc:format>
        <dc:type
           rdf:resource="http://purl.org/dc/dcmitype/StillImage" />
        <dc:title />
      </cc:Work>
    </rdf:RDF>
  </metadata>
  <g
     inkscape:label="Layer 1"
     inkscape:groupmode="layer"
     id="layer1">
    <path
       style="fill:#b2b2b2;fill-opacity:1;stroke:none;stroke-width:2.47569;stroke-linecap:round;stroke-linejoin:round"
       id="circle834"
       mask="url(#mask-powermask-path-effect850)"
       inkscape:path-effect="#path-effect850"
       sodipodi:type="arc"
       sodipodi:cx="142.875"
       sodipodi:cy="142.875"
       sodipodi:rx="142.875"
       sodipodi:ry="142.875"
       d="M 285.75,142.875 A 142.875,142.875 0 0 1 142.875,285.75 142.875,142.875 0 0 1 0,142.875 142.875,142.875 0 0 1 142.875,0 142.875,142.875 0 0 1 285.75,142.875 Z" />
    <g
       aria-label="?"
       id="text858"
       style="font-style:normal;font-variant:normal;font-weight:normal;font-stretch:normal;font-size:272.097px;line-height:1.25;font-family:Chosence;-inkscape-font-specification:'Chosence, Normal';font-variant-ligatures:normal;font-variant-caps:normal;font-variant-numeric:normal;font-variant-east-asian:normal;stroke-width:0.728831;fill:#b2b2b2;fill-opacity:1">
      <path
         d="m 189.37601,103.01704 q 0,20.32756 -10.49593,33.48068 -7.17443,8.90161 -20.72613,16.34176 l -1.06288,44.50806 h -28.43201 l -0.93002,-38.92794 v -3.85294 q 0,-13.02026 1.86004,-17.27178 2.39147,-4.78295 13.28598,-11.02737 7.97159,-4.51723 11.55881,-9.03447 4.91581,-5.84583 4.91581,-14.216 V 69.403495 q 0,-2.258617 -3.18863,-2.258617 h -26.70483 q -3.05578,0 -3.05578,2.258617 V 110.98863 H 96.374112 V 68.340616 q 0,-14.614584 8.237308,-22.851895 8.23731,-8.237311 22.32046,-8.237311 h 31.88636 q 13.95029,0 22.05474,8.104451 8.50303,8.370171 8.50303,22.984755 z m -63.77273,109.74224 h 34.54356 v 35.7393 h -34.54356 z"
         style="font-style:normal;font-variant:normal;font-weight:normal;font-stretch:normal;font-size:272.097px;font-family:Chosence;-inkscape-font-specification:'Chosence, Normal';font-variant-ligatures:normal;font-variant-caps:normal;font-variant-numeric:normal;font-variant-east-asian:normal;stroke-width:0.728831;fill:#b2b2b2;fill-opacity:1"
         id="path860" />
    </g>
  </g>
</svg>
